<svg width="38" height="38" viewBox="0 0 38 38" fill="none" xmlns="http://www.w3.org/2000/svg">
<path d="M20.5833 13.4583H14.2499C11.1893 13.4583 8.70825 10.9772 8.70825 7.91667C8.70825 4.85608 11.1893 2.375 14.2499 2.375H20.5833V13.4583Z" fill="url(#paint0_linear_109_300)"/>
<path d="M19.7916 24.5417H14.2499C11.1893 24.5417 8.70825 22.0606 8.70825 19C8.70825 15.9394 11.1893 13.4583 14.2499 13.4583H19.7916V24.5417Z" fill="url(#paint1_linear_109_300)"/>
<path d="M14.2499 35.625C11.1893 35.625 8.70825 33.1439 8.70825 30.0833C8.70825 27.0228 11.1893 24.5417 14.2499 24.5417H19.7916V30.0833C19.7916 33.1439 17.3105 35.625 14.2499 35.625Z" fill="url(#paint2_linear_109_300)"/>
<path d="M25.3334 13.4583H19.7917V2.375H25.3334C28.394 2.375 30.8751 4.85608 30.8751 7.91667C30.8751 10.9772 28.394 13.4583 25.3334 13.4583Z" fill="url(#paint3_linear_109_300)"/>
<path d="M25.3334 24.5417C28.394 24.5417 30.8751 22.0606 30.8751 19C30.8751 15.9394 28.394 13.4583 25.3334 13.4583C22.2728 13.4583 19.7917 15.9394 19.7917 19C19.7917 22.0606 22.2728 24.5417 25.3334 24.5417Z" fill="url(#paint4_linear_109_300)"/>
<defs>
<linearGradient id="paint0_linear_109_300" x1="12.9112" y1="0.871625" x2="18.2265" y2="15.4739" gradientUnits="userSpaceOnUse">
<stop stop-color="#F44F5A"/>
<stop offset="0.443" stop-color="#EE3D4A"/>
<stop offset="1" stop-color="#E52030"/>
</linearGradient>
<linearGradient id="paint1_linear_109_300" x1="12.3816" y1="11.5868" x2="17.6652" y2="26.102" gradientUnits="userSpaceOnUse">
<stop stop-color="#AE4CD5"/>
<stop offset="1" stop-color="#9331BF"/>
</linearGradient>
<linearGradient id="paint2_linear_109_300" x1="11.7245" y1="20.866" x2="17.2749" y2="36.1135" gradientUnits="userSpaceOnUse">
<stop stop-color="#33C481"/>
<stop offset="1" stop-color="#21A366"/>
</linearGradient>
<linearGradient id="paint3_linear_109_300" x1="21.7693" y1="0.405333" x2="27.011" y2="14.8057" gradientUnits="userSpaceOnUse">
<stop stop-color="#F09CA2"/>
<stop offset="1" stop-color="#EB6773"/>
</linearGradient>
<linearGradient id="paint4_linear_109_300" x1="22.732" y1="11.8528" x2="27.5952" y2="25.2146" gradientUnits="userSpaceOnUse">
<stop stop-color="#32BDEF"/>
<stop offset="1" stop-color="#1EA2E4"/>
</linearGradient>
</defs>
</svg>
