<svg width="38" height="39" viewBox="0 0 38 39" fill="none" xmlns="http://www.w3.org/2000/svg">
<g clip-path="url(#clip0_108_31)">
<path d="M28.2011 35.633C28.0597 35.7078 28.0716 35.7316 28.207 35.6627C28.2509 35.6449 28.2877 35.62 28.3198 35.5903C28.3198 35.5653 28.3198 35.5653 28.2011 35.633ZM28.486 35.4787C28.4184 35.5345 28.4184 35.5345 28.4991 35.4977C28.5419 35.4727 28.5799 35.449 28.5799 35.4418C28.5799 35.4098 28.5609 35.4169 28.486 35.4787ZM28.6713 35.367C28.6036 35.4228 28.6036 35.4228 28.6844 35.386C28.7283 35.3611 28.7651 35.335 28.7651 35.329C28.7651 35.2993 28.7461 35.3053 28.6713 35.367ZM28.8589 35.2566C28.7912 35.3124 28.7912 35.3124 28.8696 35.2744C28.9135 35.2506 28.9503 35.2257 28.9503 35.2186C28.9503 35.1889 28.9313 35.1948 28.8589 35.2566ZM29.1118 35.0891C28.9824 35.1758 28.9373 35.2316 29.056 35.1699C29.1356 35.1212 29.271 35.0143 29.2472 35.0143C29.1961 35.0333 29.1534 35.0654 29.1107 35.0891H29.1118ZM17.7561 0.0144351C17.6694 0.0203727 17.4094 0.0441232 17.1814 0.0631236C11.7808 0.552384 6.72817 3.45944 3.52558 7.9376C1.75507 10.3922 0.605606 13.2435 0.172182 16.2372C0.0189994 17.2822 0 17.591 0 19.0077C0 20.4232 0.0189994 20.7272 0.172182 21.7723C1.20646 28.9105 6.28405 34.9027 13.1666 37.1234C14.4051 37.5188 15.703 37.792 17.1814 37.9594C17.7561 38.0211 20.2415 38.0211 20.8162 37.9594C23.3716 37.6744 25.5293 37.0438 27.6643 35.9548C27.9921 35.7886 28.0538 35.7447 28.0099 35.7078C26.9649 34.3291 25.9389 32.9492 24.9118 31.5574L21.8754 27.4569L18.072 21.8221C16.8038 19.9363 15.5308 18.0553 14.2377 16.1885C14.2246 16.1885 14.208 18.693 14.2009 21.7473C14.1878 27.0971 14.1878 27.3144 14.1201 27.4379C14.0524 27.5864 13.9408 27.7099 13.7924 27.7787C13.6748 27.8346 13.5691 27.8464 13.0075 27.8464H12.3651L12.1976 27.7419C12.0931 27.6742 12.0064 27.5804 11.9506 27.47L11.8699 27.3025L11.8758 19.8556L11.8889 12.4086L12.0064 12.2602C12.0812 12.1687 12.1739 12.0939 12.2784 12.0381C12.4339 11.9633 12.4957 11.9514 13.1381 11.9514C13.8921 11.9514 14.0168 11.9811 14.2151 12.1984C15.7541 14.4927 17.2883 16.793 18.7975 19.1003C21.2663 22.8434 24.6363 27.9509 26.2928 30.4566L29.3054 35.0155L29.4538 34.917C30.9013 33.9515 32.2182 32.802 33.3546 31.4909C35.7486 28.7501 37.3018 25.3788 37.8278 21.7806C37.981 20.7355 38 20.4256 38 19.0101C38 17.5934 37.981 17.2905 37.8278 16.2455C36.7935 9.10731 31.7159 3.11506 24.8334 0.893203C23.5462 0.485882 22.2222 0.208002 20.8815 0.0654987C20.5217 0.0286854 18.0661 -0.015253 17.7573 0.0168102L17.7561 0.0144351ZM25.5305 11.5061C25.7098 11.5916 25.8451 11.7531 25.9069 11.9384C25.9389 12.0381 25.9449 14.1032 25.9389 18.7548L25.9259 25.4334L24.7515 23.6284L23.57 21.8221V16.9735C23.57 13.8301 23.583 12.0678 23.5996 11.9811C23.6554 11.7828 23.7908 11.6165 23.9713 11.512C24.1186 11.4372 24.1756 11.4313 24.7634 11.4313C25.3131 11.4313 25.407 11.4372 25.5305 11.5061Z" fill="black"/>
</g>
<defs>
<clipPath id="clip0_108_31">
<rect width="38" height="39" fill="white"/>
</clipPath>
</defs>
</svg>
