<svg width="50" height="58" viewBox="0 0 50 50" fill="none" xmlns="http://www.w3.org/2000/svg">
<path d="M25 10.4391C18.3333 10.4391 14.1667 13.9163 12.5 20.8707C15 17.3935 17.9167 16.0902 21.25 16.9587C23.1521 17.4544 24.5115 18.8946 26.0167 20.488C28.4667 23.0826 31.3031 26.087 37.5 26.087C44.1667 26.087 48.3333 22.6098 50 15.6544C47.5 19.1315 44.5833 20.4359 41.25 19.5674C39.349 19.0717 37.9896 17.6315 36.4844 16.038C34.0333 13.4424 31.1958 10.4391 25 10.4391ZM12.5 26.087C5.83333 26.087 1.66667 29.5641 0 36.5196C2.5 33.0424 5.41667 31.738 8.75 32.6076C10.651 33.1044 12.0104 34.5435 13.5156 36.1359C15.9667 38.7315 18.8042 41.7359 25 41.7359C31.6667 41.7359 35.8333 38.2587 37.5 31.3033C35 34.7804 32.0833 36.0848 28.75 35.2152C26.8479 34.7196 25.4885 33.2794 23.9833 31.687C21.5333 29.0913 18.6969 26.087 12.5 26.087Z" fill="#00ACC1"/>
</svg>
