<svg width="30" height="35" viewBox="0 0 34 38" fill="none" xmlns="http://www.w3.org/2000/svg">
<g clip-path="url(#clip0_107_21)">
<path d="M34 0H0L3 34L17 38L31 34L34 0Z" fill="#0277BD"/>
<path d="M17 3V34.9L28.2 31.7L30.7 3H17Z" fill="#039BE5"/>
<path d="M26.1 8H17V12H21.9L21.6 16H17V20H21.4L21.1 24.5L17 25.9V30.1L24.9 27.5L25.6 16L26.1 8Z" fill="white"/>
<path d="M17 8V12H8.10005L7.80005 8H17ZM12.4 16L12.6 20H17V16H12.4ZM12.8 22H8.80005L9.10005 27.5L17 30.1V25.9L12.9 24.5L12.8 22Z" fill="#EEEEEE"/>
</g>
<defs>
<clipPath id="clip0_107_21">
<rect width="34" height="38" fill="white"/>
</clipPath>
</defs>
</svg>
