<svg width="38" height="38" viewBox="0 0 38 38" fill="none" xmlns="http://www.w3.org/2000/svg">
<path d="M24.4923 2.375L4.71916 3.16666C4.70367 3.16724 4.6882 3.16827 4.67277 3.16976C4.66142 3.17066 4.65008 3.1717 4.63875 3.17285C4.23949 3.20103 3.86572 3.37936 3.59262 3.67197C3.31952 3.96457 3.16736 4.34975 3.16675 4.75V26.7497C3.16675 27.6877 3.44545 28.6045 3.9646 29.3844L8.1827 35.7116C8.3366 35.9424 8.54844 36.1288 8.79701 36.252C9.04558 36.3752 9.32215 36.4309 9.59904 36.4136L34.9324 34.8302C35.3344 34.805 35.7116 34.6276 35.9874 34.334C36.2632 34.0404 36.4167 33.6528 36.4167 33.25V8.70833C36.4164 8.31199 36.2674 7.93019 35.9993 7.63834C35.9355 7.55432 35.8556 7.48388 35.7642 7.43115L35.7611 7.42806C35.6686 7.36081 35.5691 7.30378 35.4643 7.25797L28.9701 3.55322L29.0227 3.58724C27.6962 2.68569 26.1018 2.25798 24.5015 2.375H24.4923ZM24.582 3.95524C24.5912 3.9554 24.6005 3.9554 24.6098 3.95524C25.8564 3.86244 27.0989 4.19314 28.1321 4.89534C28.1491 4.90737 28.1667 4.91872 28.1847 4.92936L32.1801 7.20849L10.8546 7.89811L7.0756 4.65722L24.582 3.95524ZM33.2501 10.3442V31.7625L11.0834 33.1479V11.0586L33.2501 10.3442ZM30.7823 13.4614C29.1768 13.5564 27.5622 13.6349 25.9519 13.7552C25.4231 13.7948 25.0303 14.2521 24.9654 14.7541C24.9353 14.9884 24.9994 15.1093 25.2654 15.1283C25.753 15.1647 26.2369 15.2336 26.7436 15.2922V24.585C26.5947 24.3712 26.5134 24.2583 26.4374 24.1427C24.3633 21.0093 22.2799 17.8816 20.2247 14.7355C19.9144 14.2605 19.6238 14.0319 19.0032 14.1016C17.5513 14.2615 16.0871 14.3091 14.6305 14.4263C13.823 14.4912 13.3435 15.1984 13.5605 15.9663C14.1067 16.0138 14.6574 16.0626 15.2211 16.1117V29.4617C14.8506 29.5662 14.4815 29.6838 14.1078 29.7741C13.7278 29.8659 13.5498 30.1215 13.477 30.473C13.4184 30.7548 13.4874 30.8972 13.8326 30.8719C15.0185 30.788 16.2107 30.736 17.3982 30.6647C17.889 30.6362 18.3811 30.6264 18.864 30.5472C19.5227 30.4379 19.8813 30.0365 19.9526 29.3937C19.3667 29.2639 18.7774 29.1212 18.1837 29.0072C17.9193 28.9565 17.8296 28.8481 17.8311 28.5742C17.8406 25.4772 17.8388 22.3784 17.8404 19.2814C17.8404 19.1801 17.8616 19.0766 17.8806 18.9072C17.9724 19.0291 18.0097 19.0791 18.0445 19.133C19.6468 21.6204 21.2445 24.114 22.8564 26.595C23.5499 27.6622 24.2602 28.7183 24.9902 29.7617C25.519 30.5185 26.2946 30.7587 27.1765 30.575C27.7275 30.4594 28.257 30.2389 28.797 30.0679C29.0978 29.9729 29.1851 29.7784 29.1835 29.4617C29.1724 24.9112 29.1773 20.3622 29.1773 15.8117C29.1773 14.9646 29.1746 14.9653 30.0154 14.7912C30.788 14.6313 31.0151 14.2531 30.7823 13.4614Z" fill="black"/>
</svg>
